<svg xmlns="http://www.w3.org/2000/svg" width="479" height="425" viewBox="0 0 479 425">
    <g fill="none" fill-rule="evenodd">
        <path fill="#FFF" fill-rule="nonzero" d="M479 425H0l13.216-69.417c.096-20.363 14.414-20.853 31.497-27.676l79.85-31.919a79.193 79.193 0 0 0 3.603-1.517l.539-1.912c15.131-6.824 28.18-16.252 32.143-22.813 2.67-4.433 5.59-6.106 7.745-4.182 3.28-6.226 5.531-13.061 7.77-19.86.742-2.618 2.31-1.315 3.112.68l-1.747-6.93-.994-12.476a258.887 258.887 0 0 1-3.64-3.968c-5.243-5.939-5.602-21.63-8.224-25.453-2.621-3.824-7.793-4.66-13.037-22.454-5.231-17.817-11.564-43.259-4.848-43.677.634-.036 1.28.107 1.987.37-.443-2.485-.958-2.521-1.52-5.999-1.006-6.656-4.86-17.578-5.232-24.055-.718-14.423 2.921-55.1 11.11-68.676 8.2-13.575 21.034-25.047 39.326-29.134 16.054-3.597 63.496-6.668 78.556 0 5.052 2.223 11.23 5.473 17.419 9.417 10.319 6.548 20.698 14.937 25.834 23.41 8.236 13.563 10.619 50.536 9.864 64.983-.562 10.946-3.064 25.776-4.237 32.337 1.915-1.721 3.77-2.76 5.447-2.677 6.704.418.323 25.86-4.885 43.677-5.231 17.793-10.415 18.63-13.025 22.454-2.621 3.824-2.993 19.514-8.2 25.453-.802.885-2 2.187-3.46 3.74L295.071 242c-.514 8.448 1.736.645 2.55 3.68.539 1.637 4.106 12.703 6.237 18.558.886 2.367.455 3.597 2.646 2.474 2.263-.86 4.417.562 6.56 3.776.683 1.028.946 1.422 1.185 1.853 4.86 6.596 17.371 15.523 31.557 21.952a59.416 59.416 0 0 0 4.118 1.78l79.85 31.918c17.095 6.824 31.4 7.314 31.496 27.676L479 425z" opacity=".3"/>
        <path fill="#0081FF" d="M198 109.424c.108-12.439 3.564-22.119 10.367-29.04C215.171 73.46 224.62 70 236.715 70c11.447 0 20.356 2.515 26.728 7.544 6.371 5.03 9.557 12.14 9.557 21.334 0 5.733-1.296 10.465-3.888 14.196-2.591 3.732-6.371 7.815-11.339 12.25-4.211 3.785-7.343 7.056-9.395 9.814-2.052 2.759-3.078 6.03-3.078 9.816h-24.298c0-6.273 1.134-11.276 3.402-15.007 2.268-3.732 5.453-7.544 9.557-11.438 2.916-2.812 5.049-5.219 6.399-7.22 1.35-2 2.024-4.353 2.024-7.057 0-2.92-.701-5.056-2.105-6.408-1.404-1.352-3.618-2.028-6.642-2.028-3.456 0-6.047 1.108-7.775 3.326-1.728 2.217-2.646 5.65-2.754 10.302H198zm34.503 46.075c4.536 0 8.235 1.406 11.096 4.218 2.862 2.813 4.293 6.436 4.293 10.87 0 4.543-1.43 8.247-4.293 11.114-2.861 2.866-6.56 4.299-11.096 4.299-4.427 0-8.072-1.433-10.934-4.3-2.862-2.866-4.293-6.57-4.293-11.113 0-4.434 1.431-8.057 4.293-10.87 2.862-2.812 6.507-4.218 10.934-4.218z"/>
    </g>
</svg>
